<svg width="28" height="28" viewBox="0 0 28 28" fill="none" xmlns="http://www.w3.org/2000/svg">
<path d="M20.192 16.2432C19.7453 16.2432 19.317 16.0658 19.0011 15.75C18.6853 15.4341 18.5079 15.0058 18.5079 14.5591C18.5079 14.1125 18.6853 13.6841 19.0011 13.3683C19.317 13.0524 19.7453 12.875 20.192 12.875C20.6387 12.875 21.067 13.0524 21.3829 13.3683C21.6987 13.6841 21.8761 14.1125 21.8761 14.5591C21.8761 15.0058 21.6987 15.4341 21.3829 15.75C21.067 16.0658 20.6387 16.2432 20.192 16.2432ZM18.5068 20.1852C18.5068 20.6319 18.6842 21.0603 19 21.3761C19.3159 21.6919 19.7442 21.8694 20.1909 21.8694C20.6375 21.8694 21.0659 21.6919 21.3817 21.3761C21.6976 21.0603 21.875 20.6319 21.875 20.1852C21.875 19.7386 21.6976 19.3102 21.3817 18.9944C21.0659 18.6786 20.6375 18.5011 20.1909 18.5011C19.7442 18.5011 19.3159 18.6786 19 18.9944C18.6842 19.3102 18.5068 19.7386 18.5068 20.1852ZM14 16.241C13.5536 16.241 13.1256 16.0637 12.8099 15.7481C12.4943 15.4324 12.317 15.0044 12.317 14.558C12.317 14.1116 12.4943 13.6836 12.8099 13.3679C13.1256 13.0523 13.5536 12.875 14 12.875C14.4467 12.875 14.875 13.0524 15.1909 13.3683C15.5067 13.6841 15.6841 14.1125 15.6841 14.5591C15.6841 15.0058 15.5067 15.4341 15.1909 15.75C14.875 16.0658 14.4467 16.2432 14 16.2432V16.241ZM12.3147 20.183C12.3147 20.6297 12.4922 21.058 12.808 21.3739C13.1239 21.6897 13.5522 21.8671 13.9989 21.8671C14.4455 21.8671 14.8739 21.6897 15.1897 21.3739C15.5056 21.058 15.683 20.6297 15.683 20.183C15.683 19.7363 15.5056 19.308 15.1897 18.9921C14.8739 18.6763 14.4455 18.4989 13.9989 18.4989C13.5522 18.4989 13.1239 18.6763 12.808 18.9921C12.4922 19.308 12.3147 19.7363 12.3147 20.183ZM7.81475 16.241C7.36809 16.241 6.93973 16.0636 6.62389 15.7477C6.30806 15.4319 6.13063 15.0035 6.13063 14.5569C6.13063 14.1102 6.30806 13.6819 6.62389 13.366C6.93973 13.0502 7.36809 12.8728 7.81475 12.8728C8.26141 12.8728 8.68977 13.0502 9.00561 13.366C9.32144 13.6819 9.49887 14.1102 9.49887 14.5569C9.49887 15.0035 9.32144 15.4319 9.00561 15.7477C8.68977 16.0636 8.26141 16.241 7.81475 16.241ZM0.5 6.125C0.5 4.63316 1.09263 3.20242 2.14752 2.14752C3.20242 1.09263 4.63316 0.5 6.125 0.5H21.875C23.3668 0.5 24.7976 1.09263 25.8525 2.14752C26.9074 3.20242 27.5 4.63316 27.5 6.125V21.875C27.5 23.3668 26.9074 24.7976 25.8525 25.8525C24.7976 26.9074 23.3668 27.5 21.875 27.5H6.125C4.63316 27.5 3.20242 26.9074 2.14752 25.8525C1.09263 24.7976 0.5 23.3668 0.5 21.875V6.125ZM25.25 9.5H2.75V21.875C2.75 22.7701 3.10558 23.6286 3.73851 24.2615C4.37145 24.8944 5.22989 25.25 6.125 25.25H21.875C22.7701 25.25 23.6286 24.8944 24.2615 24.2615C24.8944 23.6286 25.25 22.7701 25.25 21.875V9.5ZM21.875 2.75H6.125C5.22989 2.75 4.37145 3.10558 3.73851 3.73851C3.10558 4.37145 2.75 5.22989 2.75 6.125V7.25H25.25V6.125C25.25 5.22989 24.8944 4.37145 24.2615 3.73851C23.6286 3.10558 22.7701 2.75 21.875 2.75Z" fill="#6275DE"/>
</svg>
