<svg width="19" height="19" viewBox="0 0 19 19" fill="none" xmlns="http://www.w3.org/2000/svg">
<path d="M17.4855 5.75719C18.0482 5.19457 18.3643 4.43149 18.3643 3.63582C18.3643 2.84015 18.0482 2.07707 17.4855 1.51444C16.9229 0.951821 16.1598 0.635742 15.3642 0.635742C14.5685 0.635742 13.8054 0.951821 13.2428 1.51444L12.1906 2.56744L16.4326 6.80944L17.4855 5.75719Z" fill="#6275DE"/>
<path d="M15.372 7.86993L6.40577 16.8377C5.92513 17.3182 5.32292 17.6591 4.66352 17.8239L1.22702 18.6834C1.10134 18.7149 0.969636 18.7133 0.844759 18.6787C0.719883 18.6442 0.60609 18.5779 0.51447 18.4862C0.42285 18.3946 0.356528 18.2808 0.321969 18.1559C0.28741 18.0311 0.285792 17.8994 0.317273 17.7737L1.17677 14.3372C1.34156 13.6778 1.68246 13.0756 2.16302 12.5949L11.1293 3.62793L15.372 7.87068V7.86993Z" fill="#6275DE"/>
</svg>
