<svg width="36" height="36" viewBox="0 0 36 36" fill="none" xmlns="http://www.w3.org/2000/svg">
<g clip-path="url(#clip0_753_18)">
<path d="M0.8573 9.24997V13.1389H35.143V9.24997C35.143 8.21857 34.7417 7.22942 34.0272 6.50011C33.3128 5.7708 32.3438 5.36108 31.3335 5.36108H4.66682C3.65647 5.36108 2.68751 5.7708 1.97308 6.50011C1.25866 7.22942 0.8573 8.21857 0.8573 9.24997H0.8573Z" fill="#0099B5"/>
<path d="M35.143 26.75V22.8611H0.8573V26.75C0.8573 27.7814 1.25866 28.7705 1.97308 29.4998C2.68751 30.2291 3.65647 30.6389 4.66682 30.6389H31.3335C32.3438 30.6389 33.3128 30.2291 34.0272 29.4998C34.7417 28.7705 35.143 27.7814 35.143 26.75Z" fill="#1EB53A"/>
<path d="M0.8573 13.1389H35.143V14.5972H0.8573V13.1389ZM0.8573 21.4028H35.143V22.8611H0.8573V21.4028Z" fill="#CE1126"/>
<path d="M0.8573 17.9999V21.4027H35.143V14.5972H0.8573V17.9999Z" fill="#EEEEEE"/>
<path d="M4.85738 9.40553C4.85746 8.68875 5.10618 7.99516 5.55945 7.44773C6.01272 6.90031 6.64124 6.53443 7.33357 6.41497C6.90737 6.34112 6.47051 6.36309 6.05349 6.47935C5.63646 6.59561 5.24931 6.80336 4.91904 7.0881C4.58877 7.37284 4.32334 7.72772 4.14126 8.12798C3.95919 8.52823 3.86487 8.96422 3.86487 9.40553C3.86487 9.84683 3.95919 10.2828 4.14126 10.6831C4.32334 11.0833 4.58877 11.4382 4.91904 11.723C5.24931 12.0077 5.63646 12.2154 6.05349 12.3317C6.47051 12.448 6.90737 12.4699 7.33357 12.3961C6.64124 12.2766 6.01272 11.9107 5.55945 11.3633C5.10618 10.8159 4.85746 10.1223 4.85738 9.40553ZM9.31738 11.6446L9.18404 11.2255L9.05071 11.6446H8.61833L8.96785 11.9041L8.83452 12.3232L9.18404 12.0636L9.53262 12.3232L9.39928 11.9041L9.74881 11.6446H9.31738ZM11.8907 11.6446L11.7574 11.2255L11.624 11.6446H11.1926L11.5421 11.9041L11.4088 12.3232L11.7574 12.0636L12.1069 12.3232L11.9736 11.9041L12.3231 11.6446H11.8907ZM11.7574 8.79886L11.624 9.21789H11.1926L11.5421 9.47747L11.4088 9.8965L11.7574 9.63691L12.1069 9.8965L11.9736 9.47747L12.3231 9.21789H11.8907L11.7574 8.79886ZM14.465 11.6446L14.3317 11.2255L14.1983 11.6446H13.7669L14.1155 11.9041L13.9821 12.3232L14.3317 12.0636L14.6812 12.3232L14.5479 11.9041L14.8964 11.6446H14.465ZM14.3317 8.79886L14.1983 9.21789H13.7669L14.1155 9.47747L13.9821 9.8965L14.3317 9.63691L14.6812 9.8965L14.5479 9.47747L14.8964 9.21789H14.465L14.3317 8.79886ZM14.3317 6.37219L14.1983 6.79122H13.7669L14.1155 7.0508L13.9821 7.46983L14.3317 7.21025L14.6812 7.46983L14.5479 7.0508L14.8964 6.79122H14.465L14.3317 6.37219ZM17.0393 11.6446L16.906 11.2255L16.7726 11.6446H16.3402L16.6898 11.9041L16.5564 12.3232L16.906 12.0636L17.2545 12.3232L17.1212 11.9041L17.4707 11.6446H17.0393ZM16.906 8.79886L16.7726 9.21789H16.3402L16.6898 9.47747L16.5564 9.8965L16.906 9.63691L17.2545 9.8965L17.1212 9.47747L17.4707 9.21789H17.0393L16.906 8.79886ZM16.906 6.37219L16.7726 6.79122H16.3402L16.6898 7.0508L16.5564 7.46983L16.906 7.21025L17.2545 7.46983L17.1212 7.0508L17.4707 6.79122H17.0393L16.906 6.37219ZM19.6126 11.6446L19.4793 11.2255L19.346 11.6446H18.9145L19.264 11.9041L19.1307 12.3232L19.4793 12.0636L19.8288 12.3232L19.6955 11.9041L20.045 11.6446H19.6126ZM19.4793 8.79886L19.346 9.21789H18.9145L19.264 9.47747L19.1307 9.8965L19.4793 9.63691L19.8288 9.8965L19.6955 9.47747L20.045 9.21789H19.6126L19.4793 8.79886ZM19.4793 6.37219L19.346 6.79122H18.9145L19.264 7.0508L19.1307 7.46983L19.4793 7.21025L19.8288 7.46983L19.6955 7.0508L20.045 6.79122H19.6126L19.4793 6.37219Z" fill="white"/>
</g>
<defs>
<clipPath id="clip0_753_18">
<rect width="34.2857" height="35" fill="white" transform="translate(0.8573 0.5)"/>
</clipPath>
</defs>
</svg>
