<svg width="40" height="40" viewBox="0 0 40 40" fill="none" xmlns="http://www.w3.org/2000/svg">
<path d="M37.5 33.9999V20.3044C37.5001 19.3516 37.3057 18.4087 36.9286 17.5337C36.5516 16.6586 35.9999 15.8698 35.3072 15.2154L22.4045 3.0214C21.7547 2.40702 20.8943 2.0647 20 2.0647C19.1057 2.0647 18.2453 2.40702 17.5955 3.0214L4.69275 15.2154C4.00014 15.8698 3.44842 16.6586 3.07137 17.5337C2.69433 18.4087 2.4999 19.3516 2.5 20.3044V33.9999C2.5 34.9282 2.86875 35.8184 3.52513 36.4748C4.1815 37.1311 5.07174 37.4999 6 37.4999H34C34.9283 37.4999 35.8185 37.1311 36.4749 36.4748C37.1313 35.8184 37.5 34.9282 37.5 33.9999Z" stroke="#6275DE" stroke-width="4" stroke-linecap="round" stroke-linejoin="round"/>
</svg>
