<svg width="49" height="48" viewBox="0 0 49 48" fill="none" xmlns="http://www.w3.org/2000/svg">
<rect x="0.493408" width="48" height="48" rx="5" fill="#5E72E4"/>
<path d="M41.4387 25.0547H31.2019C29.9836 25.0547 28.7642 24.8146 27.6343 24.3574C30.0761 23.2083 31.8762 20.6985 31.8762 17.6719C31.8762 15.9733 30.7763 13.6183 28.5137 10.4721C26.9227 8.25977 25.3577 6.44191 25.2919 6.36562C25.0916 6.13345 24.8 6 24.4934 6C24.1868 6 23.8953 6.13345 23.6949 6.36562C23.6291 6.44191 22.0641 8.2597 20.4732 10.472C18.2105 13.6183 17.1106 15.9733 17.1106 17.6719C17.1106 20.6717 18.8856 23.1965 21.3525 24.3574C20.2226 24.8146 19.0032 25.0547 17.7849 25.0547H7.5481C6.96563 25.0547 6.49341 25.5269 6.49341 26.1094C6.49341 30.4179 8.21628 34.3852 11.1622 37.3312C14.1729 40.3419 18.1583 42 22.384 42H26.6028C30.8286 42 34.8139 40.3419 37.8246 37.3312C40.7906 34.3652 42.4934 30.3907 42.4934 26.1094C42.4934 25.5269 42.0212 25.0547 41.4387 25.0547ZM20.2747 20.8359C20.2747 20.8361 20.2747 20.8362 20.2747 20.8364C19.5907 19.9283 19.22 18.8287 19.22 17.6719C19.22 16.983 19.6052 15.2917 22.1856 11.7036C23.0371 10.5196 23.8954 9.43575 24.4934 8.70232C25.0914 9.43568 25.9497 10.5196 26.8012 11.7036C29.3816 15.2917 29.7668 16.983 29.7668 17.6719C29.7668 18.8287 29.3962 19.9283 28.7122 20.8364C28.7122 20.8362 28.7122 20.8361 28.7122 20.8359C28.7122 19.8723 28.1298 18.5941 26.9317 16.9281C26.1169 15.795 25.3123 14.8958 25.2784 14.8581C25.0783 14.6351 24.7929 14.5078 24.4934 14.5078C24.1939 14.5078 23.9085 14.6351 23.7084 14.8581C23.6746 14.8959 22.87 15.795 22.0551 16.9281C20.8571 18.5941 20.2747 19.8723 20.2747 20.8359ZM26.6028 20.8359C26.6028 21.999 25.6565 22.9453 24.4934 22.9453C23.3303 22.9453 22.384 21.999 22.384 20.8359C22.384 20.1637 23.3751 18.594 24.493 17.1961C25.6138 18.6015 26.6028 20.1826 26.6028 20.8359ZM26.6028 39.8906H22.384C16.652 39.8906 11.7269 36.3586 9.65241 31.3687H39.3344C37.2599 36.3586 32.3348 39.8906 26.6028 39.8906ZM40.0169 29.2734H8.96988C8.80831 28.5884 8.69749 27.884 8.64279 27.1641H17.7849C20.8562 27.1641 22.7442 26.0538 24.4934 25.1792C26.2377 26.0514 28.1214 27.1641 31.2019 27.1641L40.344 27.15C40.2893 27.8699 40.1785 28.5884 40.0169 29.2734Z" fill="white"/>
</svg>
