<svg width="28" height="32" viewBox="0 0 28 32" fill="none" xmlns="http://www.w3.org/2000/svg">
<path d="M1.57141 25.998L1.57141 5.99804" stroke="#9B9EA8" stroke-width="3" stroke-linecap="round" stroke-linejoin="round"/>
<path d="M23.6274 29.4642C23.8043 29.604 24.017 29.6911 24.2412 29.7156C24.4653 29.74 24.6918 29.7009 24.8947 29.6026C25.0976 29.5042 25.2687 29.3507 25.3884 29.1597C25.5081 28.9686 25.5715 28.7476 25.5714 28.5222L25.5714 3.47418C25.5711 3.24888 25.5074 3.02821 25.3876 2.83743C25.2677 2.64664 25.0966 2.49344 24.8938 2.39537C24.691 2.29729 24.4646 2.25829 24.2407 2.28284C24.0167 2.30739 23.8042 2.39449 23.6274 2.53418L7.76541 15.0562C7.62308 15.1685 7.50806 15.3116 7.42897 15.4748C7.34989 15.6379 7.3088 15.8169 7.3088 15.9982C7.3088 16.1795 7.34989 16.3584 7.42897 16.5216C7.50806 16.6847 7.62308 16.8279 7.76541 16.9402L23.6274 29.4642Z" stroke="#9B9EA8" stroke-width="3" stroke-linecap="round" stroke-linejoin="round"/>
</svg>
