<svg width="28" height="32" viewBox="0 0 28 32" fill="none" xmlns="http://www.w3.org/2000/svg">
<path d="M25.5714 6.00049V26.0005" stroke="#9B9EA8" stroke-width="3" stroke-linecap="round" stroke-linejoin="round"/>
<path d="M3.51541 2.53436C3.33851 2.39457 3.1258 2.30744 2.90166 2.28297C2.67753 2.2585 2.45103 2.29766 2.24813 2.39598C2.04523 2.4943 1.87413 2.6478 1.75444 2.83888C1.63475 3.02996 1.57132 3.25089 1.57141 3.47636V28.5244C1.5717 28.7497 1.6354 28.9703 1.75524 29.1611C1.87507 29.3519 2.0462 29.5051 2.24903 29.6032C2.45186 29.7012 2.6782 29.7402 2.90216 29.7157C3.12612 29.6911 3.33864 29.604 3.51541 29.4644L19.3774 16.9424C19.5197 16.83 19.6348 16.6869 19.7139 16.5238C19.7929 16.3606 19.834 16.1817 19.834 16.0004C19.834 15.819 19.7929 15.6401 19.7139 15.4769C19.6348 15.3138 19.5197 15.1707 19.3774 15.0584L3.51541 2.53436Z" stroke="#9B9EA8" stroke-width="3" stroke-linecap="round" stroke-linejoin="round"/>
</svg>
