<svg width="30" height="34" viewBox="0 0 30 34" fill="none" xmlns="http://www.w3.org/2000/svg">
<path d="M7.64998 19.1C7.3715 19.1 7.10443 19.2106 6.90751 19.4075C6.7106 19.6044 6.59998 19.8715 6.59998 20.15V24.35C6.59998 24.6284 6.7106 24.8955 6.90751 25.0924C7.10443 25.2893 7.3715 25.4 7.64998 25.4C7.92845 25.4 8.19552 25.2893 8.39244 25.0924C8.58935 24.8955 8.69997 24.6284 8.69997 24.35V24.0014H9.39927C10.0492 24.0014 10.6726 23.7432 11.1322 23.2836C11.5918 22.824 11.85 22.2006 11.85 21.5507C11.85 20.9007 11.5918 20.2774 11.1322 19.8178C10.6726 19.3582 10.0492 19.1 9.39927 19.1H7.64998ZM9.39927 21.9014H8.69997V21.2H9.39927C9.49229 21.2 9.58149 21.2369 9.64726 21.3027C9.71303 21.3685 9.74997 21.4577 9.74997 21.5507C9.74997 21.6437 9.71303 21.7329 9.64726 21.7987C9.58149 21.8644 9.49229 21.9014 9.39927 21.9014Z" fill="#9B9EA8"/>
<path d="M19.2 20.15C19.2 19.8715 19.3106 19.6044 19.5075 19.4075C19.7044 19.2106 19.9715 19.1 20.2499 19.1H22.3499C22.6284 19.1 22.8955 19.2106 23.0924 19.4075C23.2893 19.6044 23.3999 19.8715 23.3999 20.15C23.3999 20.4285 23.2893 20.6955 23.0924 20.8924C22.8955 21.0894 22.6284 21.2 22.3499 21.2H21.2999V21.9035H22.3499C22.6284 21.9035 22.8955 22.0141 23.0924 22.211C23.2893 22.4079 23.3999 22.675 23.3999 22.9535C23.3999 23.232 23.2893 23.499 23.0924 23.6959C22.8955 23.8928 22.6284 24.0035 22.3499 24.0035H21.2999V24.3479C21.3002 24.4858 21.2733 24.6224 21.2208 24.7499C21.1683 24.8773 21.0912 24.9933 20.9939 25.091C20.7974 25.2883 20.5305 25.3994 20.2521 25.4C19.9736 25.4005 19.7063 25.2904 19.509 25.0939C19.3117 24.8974 19.2005 24.6306 19.2 24.3521V20.15Z" fill="#9B9EA8"/>
<path d="M13.9478 19.1C13.6693 19.1 13.4023 19.2106 13.2054 19.4075C13.0085 19.6044 12.8978 19.8715 12.8978 20.15V24.35C12.8978 24.6284 13.0085 24.8955 13.2054 25.0924C13.4023 25.2893 13.6693 25.4 13.9478 25.4H14.9999C15.8354 25.4 16.6366 25.0681 17.2273 24.4774C17.8181 23.8866 18.1499 23.0854 18.1499 22.25C18.1499 21.4145 17.8181 20.6133 17.2273 20.0226C16.6366 19.4318 15.8354 19.1 14.9999 19.1H13.9499H13.9478ZM14.9978 23.3V21.2H14.9999C15.2784 21.2 15.5455 21.3106 15.7424 21.5075C15.9393 21.7044 16.0499 21.9715 16.0499 22.25C16.0499 22.5285 15.9393 22.7955 15.7424 22.9924C15.5455 23.1893 15.2784 23.3 14.9999 23.3H14.9978Z" fill="#9B9EA8"/>
<path d="M2.3999 4.39995C2.3999 3.28604 2.8424 2.21776 3.63005 1.4301C4.41771 0.64245 5.48599 0.199951 6.5999 0.199951H16.2305C17.0657 0.200686 17.8663 0.533043 18.4565 1.12395L26.678 9.34335C27.2689 9.93352 27.6013 10.7342 27.602 11.5694V15.0722C28.2153 15.29 28.7461 15.6924 29.1214 16.2241C29.4966 16.7558 29.698 17.3907 29.6978 18.0416V26.4479C29.6979 27.0989 29.4962 27.734 29.1205 28.2658C28.7448 28.7975 28.2136 29.1998 27.5999 29.4173V29.6C27.5999 30.7139 27.1574 31.7821 26.3697 32.5698C25.5821 33.3575 24.5138 33.8 23.3999 33.8H6.5999C5.48599 33.8 4.41771 33.3575 3.63005 32.5698C2.8424 31.7821 2.3999 30.7139 2.3999 29.6V29.4173C1.78622 29.1998 1.25499 28.7975 0.87931 28.2658C0.503626 27.734 0.301941 27.0989 0.302002 26.4479V18.0416C0.302095 17.3902 0.504086 16.7549 0.880168 16.2232C1.25625 15.6914 1.78793 15.2893 2.402 15.0722V4.39995H2.3999ZM25.4999 12.8H18.1499C17.3145 12.8 16.5133 12.4681 15.9225 11.8773C15.3318 11.2866 14.9999 10.4854 14.9999 9.64995V2.29995H6.5999C6.04295 2.29995 5.5088 2.5212 5.11498 2.91503C4.72115 3.30885 4.4999 3.843 4.4999 4.39995V14.8916H25.4999V12.8ZM4.4999 29.5979C4.49963 29.8738 4.55374 30.1471 4.65915 30.4021C4.76456 30.6572 4.9192 30.8889 5.11424 31.0841C5.30927 31.2794 5.54086 31.4342 5.79578 31.5399C6.0507 31.6456 6.32395 31.7 6.5999 31.7H23.3999C23.6759 31.7 23.9491 31.6456 24.204 31.5399C24.4589 31.4342 24.6905 31.2794 24.8856 31.0841C25.0806 30.8889 25.2352 30.6572 25.3407 30.4021C25.4461 30.1471 25.5002 29.8738 25.4999 29.5979H4.4999ZM17.0999 2.73465V9.64995C17.0999 9.92843 17.2105 10.1955 17.4074 10.3924C17.6044 10.5893 17.8714 10.7 18.1499 10.7H25.0652L17.0999 2.73465V2.73465ZM3.452 16.9916C3.17352 16.9916 2.90645 17.1022 2.70954 17.2991C2.51263 17.496 2.402 17.7631 2.402 18.0416V26.4479C2.402 26.7263 2.51263 26.9934 2.70954 27.1903C2.90645 27.3872 3.17352 27.4979 3.452 27.4979H26.5499C26.8284 27.4979 27.0955 27.3872 27.2924 27.1903C27.4893 26.9934 27.5999 26.7263 27.5999 26.4479V18.0416C27.5999 17.7631 27.4893 17.496 27.2924 17.2991C27.0955 17.1022 26.8284 16.9916 26.5499 16.9916H3.4499H3.452Z" fill="#9B9EA8"/>
</svg>
