<svg width="30" height="30" viewBox="0 0 30 30" fill="none" xmlns="http://www.w3.org/2000/svg">
<path d="M26.25 29.625H26.0587C3.95247 28.3538 0.813723 9.70125 0.374973 4.00875C0.33962 3.56615 0.391948 3.12093 0.528958 2.69859C0.665967 2.27625 0.884966 1.88509 1.17341 1.54753C1.46185 1.20998 1.81406 0.932649 2.20986 0.731444C2.60566 0.53024 3.03728 0.409112 3.47997 0.375001H9.67873C10.1294 0.374565 10.5697 0.509449 10.9428 0.762183C11.3159 1.01492 11.6045 1.37385 11.7712 1.7925L13.4812 6C13.6459 6.40899 13.6867 6.85734 13.5987 7.28935C13.5107 7.72137 13.2977 8.11801 12.9862 8.43L10.59 10.8488C10.9643 12.9758 11.9829 14.9366 13.5081 16.4658C15.0333 17.995 16.9914 19.0188 19.1175 19.3988L21.5587 16.98C21.8754 16.6719 22.2758 16.4639 22.7099 16.3819C23.144 16.2999 23.5927 16.3475 24 16.5188L28.2412 18.2175C28.6536 18.3895 29.0054 18.6803 29.2518 19.053C29.4982 19.4257 29.6281 19.8632 29.625 20.31V26.25C29.625 27.1451 29.2694 28.0036 28.6365 28.6365C28.0035 29.2694 27.1451 29.625 26.25 29.625ZM3.74997 2.625C3.45161 2.625 3.16546 2.74353 2.95448 2.95451C2.7435 3.16548 2.62497 3.45163 2.62497 3.75V3.84C3.14247 10.5 6.46122 26.25 26.1825 27.375C26.3303 27.3841 26.4784 27.364 26.6184 27.3158C26.7584 27.2675 26.8875 27.1921 26.9983 27.0939C27.1091 26.9956 27.1994 26.8765 27.264 26.7432C27.3287 26.61 27.3664 26.4653 27.375 26.3175V20.31L23.1337 18.6112L19.905 21.8175L19.365 21.75C9.57747 20.5238 8.24997 10.7363 8.24997 10.635L8.18247 10.095L11.3775 6.86625L9.68997 2.625H3.74997Z" fill="#6275DE"/>
</svg>
