<svg width="32" height="37" viewBox="0 0 32 37" fill="none" xmlns="http://www.w3.org/2000/svg">
<path d="M30.1906 17.2157L3.36738 1.24965C3.05428 1.06329 2.6974 0.963206 2.33305 0.959575C1.96871 0.955944 1.6099 1.0489 1.29315 1.22898C0.976396 1.40906 0.713002 1.66984 0.52977 1.98478C0.346537 2.29972 0.250006 2.65757 0.25 3.02194V34.3154C0.250425 34.6765 0.34558 35.0312 0.525962 35.344C0.706343 35.6568 0.965638 35.9168 1.27795 36.0981C1.59026 36.2793 1.94467 36.3755 2.30576 36.3769C2.66686 36.3783 3.02201 36.285 3.33576 36.1062L30.1588 20.779C30.4718 20.6002 30.7325 20.3424 30.9148 20.0314C31.0971 19.7204 31.1947 19.367 31.1979 19.0066C31.2011 18.6461 31.1098 18.2911 30.933 17.9769C30.7562 17.6627 30.5001 17.4004 30.1904 17.216L30.1906 17.2157ZM3 33.1307V4.23125L27.771 18.9759L3 33.1307Z" fill="#FEFEFF"/>
</svg>
