<svg width="18" height="18" viewBox="0 0 18 18" fill="none" xmlns="http://www.w3.org/2000/svg">
<path d="M16.7645 7.93773L2.57454 0.842731C2.38311 0.75404 2.17254 0.714636 1.96199 0.728106C1.75144 0.741577 1.54761 0.807494 1.36904 0.919858C1.19047 1.03222 1.04284 1.18746 0.939593 1.37145C0.836343 1.55544 0.78075 1.76233 0.777875 1.97329V16.1572C0.776087 16.3737 0.830192 16.5871 0.93496 16.7766C1.03973 16.9661 1.19162 17.1254 1.37594 17.2391C1.56027 17.3528 1.77081 17.417 1.9872 17.4255C2.20359 17.434 2.41851 17.3866 2.61121 17.2877L16.7645 10.1927C16.9742 10.0875 17.1505 9.92602 17.2736 9.72638C17.3968 9.52673 17.462 9.29676 17.462 9.06218C17.462 8.82759 17.3968 8.59762 17.2736 8.39798C17.1505 8.19833 16.9742 8.03686 16.7645 7.93162V7.93773Z" fill="#6275DE"/>
</svg>
