<svg width="21" height="21" viewBox="0 0 21 21" fill="none" xmlns="http://www.w3.org/2000/svg">
<path d="M17.7979 3.20217C16.8419 2.23968 15.7049 1.47593 14.4524 0.954964C13.1998 0.433996 11.8565 0.16611 10.5 0.166749C4.79081 0.166749 0.179565 4.79092 0.179565 10.5001C0.179565 16.2092 4.79081 20.8334 10.5 20.8334C15.3179 20.8334 19.335 17.5397 20.4846 13.0834H17.7979C17.2658 14.594 16.2781 15.9023 14.9709 16.8277C13.6637 17.7532 12.1016 18.2501 10.5 18.2501C6.22457 18.2501 2.74998 14.7755 2.74998 10.5001C2.74998 6.22467 6.22457 2.75008 10.5 2.75008C12.6441 2.75008 14.5558 3.64133 15.9508 5.04925L11.7916 9.20842H20.8333V0.166749L17.7979 3.20217Z" fill="white"/>
</svg>
