<svg width="42" height="42" viewBox="0 0 42 42" fill="none" xmlns="http://www.w3.org/2000/svg">
<path d="M35.4375 21.9975V21V19.9894L37.9575 17.7844C38.4221 17.3749 38.7269 16.8145 38.8182 16.202C38.9094 15.5896 38.7812 14.9646 38.4563 14.4375L35.3588 9.18749C35.1286 8.78883 34.7977 8.45771 34.3991 8.22734C34.0006 7.99697 33.5485 7.87546 33.0882 7.87499C32.8029 7.8728 32.5192 7.91713 32.2482 8.00624L29.0588 9.08249C28.5081 8.71657 27.9337 8.38772 27.3394 8.09811L26.67 4.79061C26.55 4.18634 26.2213 3.64354 25.7414 3.25722C25.2615 2.8709 24.661 2.66568 24.045 2.67748H17.9025C17.2866 2.66568 16.6861 2.8709 16.2062 3.25722C15.7263 3.64354 15.3975 4.18634 15.2775 4.79061L14.6082 8.09811C14.0096 8.38765 13.4308 8.71649 12.8757 9.08249L9.7519 7.95374C9.47798 7.88237 9.19432 7.85577 8.9119 7.87499C8.45157 7.87546 7.99946 7.99697 7.60093 8.22734C7.20239 8.45771 6.87144 8.78883 6.64128 9.18749L3.54378 14.4375C3.23742 14.9638 3.12358 15.5802 3.22175 16.1812C3.31993 16.7822 3.624 17.3304 4.0819 17.7319L6.56253 20.0025V22.0106L4.0819 24.2156C3.61107 24.6199 3.29867 25.1778 3.20016 25.7905C3.10165 26.4032 3.22339 27.031 3.54378 27.5625L6.64128 32.8125C6.87144 33.2111 7.20239 33.5423 7.60093 33.7726C7.99946 34.003 8.45157 34.1245 8.9119 34.125C9.19717 34.1272 9.48089 34.0828 9.7519 33.9937L12.9413 32.9175C13.4919 33.2834 14.0663 33.6123 14.6607 33.9019L15.33 37.2094C15.45 37.8136 15.7788 38.3564 16.2587 38.7428C16.7386 39.1291 17.3391 39.3343 17.955 39.3225H24.15C24.766 39.3343 25.3665 39.1291 25.8464 38.7428C26.3263 38.3564 26.655 37.8136 26.775 37.2094L27.4444 33.9019C28.043 33.6123 28.6218 33.2835 29.1769 32.9175L32.3532 33.9937C32.6242 34.0828 32.9079 34.1272 33.1932 34.125C33.6535 34.1245 34.1056 34.003 34.5041 33.7726C34.9027 33.5423 35.2336 33.2111 35.4638 32.8125L38.4563 27.5625C38.7626 27.0362 38.8765 26.4198 38.7783 25.8187C38.6801 25.2177 38.3761 24.6696 37.9182 24.2681L35.4375 21.9975ZM33.0882 31.5L28.5863 29.9775C27.5324 30.8701 26.328 31.5679 25.0294 32.0381L24.0975 36.75H17.9025L16.9707 32.0906C15.6823 31.6071 14.4844 30.9105 13.4269 30.03L8.9119 31.5L5.8144 26.25L9.3844 23.1C9.14172 21.7414 9.14172 20.3505 9.3844 18.9919L5.8144 15.75L8.9119 10.5L13.4138 12.0225C14.4676 11.1298 15.6721 10.4321 16.9707 9.96186L17.9025 5.24998H24.0975L25.0294 9.90936C26.3177 10.3929 27.5156 11.0895 28.5732 11.97L33.0882 10.5L36.1857 15.75L32.6157 18.9C32.8583 20.2586 32.8583 21.6495 32.6157 23.0081L36.1857 26.25L33.0882 31.5Z" fill="#9B9EA8"/>
<path d="M21 28.875C19.4425 28.875 17.9199 28.4131 16.6249 27.5478C15.3299 26.6825 14.3205 25.4526 13.7245 24.0136C13.1284 22.5747 12.9725 20.9913 13.2763 19.4637C13.5802 17.9361 14.3302 16.5329 15.4315 15.4315C16.5329 14.3302 17.9361 13.5802 19.4637 13.2763C20.9913 12.9725 22.5747 13.1284 24.0136 13.7245C25.4526 14.3205 26.6825 15.3299 27.5478 16.6249C28.4131 17.9199 28.875 19.4425 28.875 21C28.8855 22.0371 28.689 23.0659 28.297 24.0261C27.905 24.9862 27.3253 25.8586 26.5919 26.5919C25.8586 27.3253 24.9862 27.905 24.0261 28.297C23.0659 28.689 22.0371 28.8855 21 28.875ZM21 15.75C20.3061 15.7338 19.6162 15.8586 18.972 16.1167C18.3277 16.3748 17.7425 16.7609 17.2517 17.2517C16.7609 17.7425 16.3748 18.3277 16.1167 18.972C15.8586 19.6162 15.7338 20.3061 15.75 21C15.7338 21.6939 15.8586 22.3838 16.1167 23.0281C16.3748 23.6723 16.7609 24.2575 17.2517 24.7483C17.7425 25.2391 18.3277 25.6252 18.972 25.8833C19.6162 26.1414 20.3061 26.2662 21 26.25C21.6939 26.2662 22.3838 26.1414 23.0281 25.8833C23.6723 25.6252 24.2575 25.2391 24.7483 24.7483C25.2391 24.2575 25.6252 23.6723 25.8833 23.0281C26.1414 22.3838 26.2662 21.6939 26.25 21C26.2662 20.3061 26.1414 19.6162 25.8833 18.972C25.6252 18.3277 25.2391 17.7425 24.7483 17.2517C24.2575 16.7609 23.6723 16.3748 23.0281 16.1167C22.3838 15.8586 21.6939 15.7338 21 15.75Z" fill="#9B9EA8"/>
</svg>
