<svg width="89" height="36" viewBox="0 0 89 36" fill="none" xmlns="http://www.w3.org/2000/svg">
<g clip-path="url(#clip0_2_9)">
<path d="M0.8573 9.25V13.1389H35.143V9.25C35.143 8.2186 34.7417 7.22945 34.0272 6.50014C33.3128 5.77083 32.3438 5.36111 31.3335 5.36111H4.66682C3.65647 5.36111 2.68751 5.77083 1.97308 6.50014C1.25866 7.22945 0.8573 8.2186 0.8573 9.25H0.8573Z" fill="#0099B5"/>
<path d="M35.143 26.75V22.8611H0.8573V26.75C0.8573 27.7814 1.25866 28.7705 1.97308 29.4999C2.68751 30.2292 3.65647 30.6389 4.66682 30.6389H31.3335C32.3438 30.6389 33.3128 30.2292 34.0272 29.4999C34.7417 28.7705 35.143 27.7814 35.143 26.75Z" fill="#1EB53A"/>
<path d="M0.8573 13.1389H35.143V14.5972H0.8573V13.1389ZM0.8573 21.4028H35.143V22.8611H0.8573V21.4028Z" fill="#CE1126"/>
<path d="M0.8573 18V21.4028H35.143V14.5972H0.8573V18Z" fill="#EEEEEE"/>
<path d="M4.85733 9.40555C4.85741 8.68877 5.10613 7.99518 5.5594 7.44776C6.01267 6.90034 6.64119 6.53446 7.33352 6.41499C6.90732 6.34114 6.47046 6.36311 6.05344 6.47937C5.63641 6.59563 5.24926 6.80338 4.91899 7.08812C4.58872 7.37287 4.32329 7.72774 4.14122 8.128C3.95914 8.52825 3.86482 8.96424 3.86482 9.40555C3.86482 9.84685 3.95914 10.2828 4.14122 10.6831C4.32329 11.0834 4.58872 11.4382 4.91899 11.723C5.24926 12.0077 5.63641 12.2155 6.05344 12.3317C6.47046 12.448 6.90732 12.47 7.33352 12.3961C6.64119 12.2766 6.01267 11.9108 5.5594 11.3633C5.10613 10.8159 4.85741 10.1223 4.85733 9.40555V9.40555ZM9.31733 11.6446L9.18399 11.2255L9.05066 11.6446H8.61828L8.9678 11.9042L8.83447 12.3232L9.18399 12.0636L9.53257 12.3232L9.39923 11.9042L9.74876 11.6446H9.31733ZM11.8907 11.6446L11.7573 11.2255L11.624 11.6446H11.1926L11.5421 11.9042L11.4088 12.3232L11.7573 12.0636L12.1069 12.3232L11.9735 11.9042L12.323 11.6446H11.8907ZM11.7573 8.79888L11.624 9.21791H11.1926L11.5421 9.47749L11.4088 9.89652L11.7573 9.63694L12.1069 9.89652L11.9735 9.47749L12.323 9.21791H11.8907L11.7573 8.79888ZM14.4649 11.6446L14.3316 11.2255L14.1983 11.6446H13.7669L14.1154 11.9042L13.9821 12.3232L14.3316 12.0636L14.6811 12.3232L14.5478 11.9042L14.8964 11.6446H14.4649ZM14.3316 8.79888L14.1983 9.21791H13.7669L14.1154 9.47749L13.9821 9.89652L14.3316 9.63694L14.6811 9.89652L14.5478 9.47749L14.8964 9.21791H14.4649L14.3316 8.79888ZM14.3316 6.37221L14.1983 6.79124H13.7669L14.1154 7.05083L13.9821 7.46985L14.3316 7.21027L14.6811 7.46985L14.5478 7.05083L14.8964 6.79124H14.4649L14.3316 6.37221ZM17.0392 11.6446L16.9059 11.2255L16.7726 11.6446H16.3402L16.6897 11.9042L16.5564 12.3232L16.9059 12.0636L17.2545 12.3232L17.1211 11.9042L17.4707 11.6446H17.0392ZM16.9059 8.79888L16.7726 9.21791H16.3402L16.6897 9.47749L16.5564 9.89652L16.9059 9.63694L17.2545 9.89652L17.1211 9.47749L17.4707 9.21791H17.0392L16.9059 8.79888ZM16.9059 6.37221L16.7726 6.79124H16.3402L16.6897 7.05083L16.5564 7.46985L16.9059 7.21027L17.2545 7.46985L17.1211 7.05083L17.4707 6.79124H17.0392L16.9059 6.37221ZM19.6126 11.6446L19.4792 11.2255L19.3459 11.6446H18.9145L19.264 11.9042L19.1307 12.3232L19.4792 12.0636L19.8288 12.3232L19.6954 11.9042L20.0449 11.6446H19.6126ZM19.4792 8.79888L19.3459 9.21791H18.9145L19.264 9.47749L19.1307 9.89652L19.4792 9.63694L19.8288 9.89652L19.6954 9.47749L20.0449 9.21791H19.6126L19.4792 8.79888ZM19.4792 6.37221L19.3459 6.79124H18.9145L19.264 7.05083L19.1307 7.46985L19.4792 7.21027L19.8288 7.46985L19.6954 7.05083L20.0449 6.79124H19.6126L19.4792 6.37221Z" fill="white"/>
</g>
<path d="M57.5049 16.9863V18.8936H48.7334V16.9863H57.5049ZM54.1475 13.4004V22.7168H52.0996V13.4004H54.1475ZM60.8271 22.3301H61.0029C61.8115 22.3301 62.4854 22.2246 63.0244 22.0137C63.5693 21.7969 64.0029 21.498 64.3252 21.1172C64.6475 20.7363 64.8789 20.2881 65.0195 19.7725C65.1602 19.2568 65.2305 18.6973 65.2305 18.0938V15.8877C65.2305 15.3662 65.1748 14.9092 65.0635 14.5166C64.958 14.1182 64.8057 13.7871 64.6064 13.5234C64.4131 13.2539 64.1875 13.0518 63.9297 12.917C63.6777 12.7822 63.4053 12.7148 63.1123 12.7148C62.79 12.7148 62.5 12.7881 62.2422 12.9346C61.9902 13.0752 61.7764 13.2715 61.6006 13.5234C61.4307 13.7695 61.2988 14.0596 61.2051 14.3936C61.1172 14.7217 61.0732 15.0732 61.0732 15.4482C61.0732 15.7998 61.1143 16.1396 61.1963 16.4678C61.2842 16.79 61.4131 17.0771 61.583 17.3291C61.7529 17.5811 61.9668 17.7803 62.2246 17.9268C62.4824 18.0732 62.7842 18.1465 63.1299 18.1465C63.458 18.1465 63.7598 18.085 64.0352 17.9619C64.3105 17.833 64.5508 17.6602 64.7559 17.4434C64.9609 17.2266 65.1221 16.9834 65.2393 16.7139C65.3564 16.4443 65.4209 16.1689 65.4326 15.8877L66.2412 16.1338C66.2412 16.5791 66.1475 17.0186 65.96 17.4521C65.7783 17.8799 65.5234 18.2725 65.1953 18.6299C64.873 18.9814 64.4951 19.2627 64.0615 19.4736C63.6338 19.6846 63.168 19.79 62.6641 19.79C62.0547 19.79 61.5156 19.6758 61.0469 19.4473C60.584 19.2129 60.1973 18.8965 59.8867 18.498C59.582 18.0996 59.3535 17.6426 59.2012 17.127C59.0488 16.6113 58.9727 16.0693 58.9727 15.501C58.9727 14.8857 59.0664 14.3086 59.2539 13.7695C59.4414 13.2305 59.7139 12.7559 60.0713 12.3457C60.4287 11.9297 60.8623 11.6074 61.3721 11.3789C61.8877 11.1445 62.4707 11.0273 63.1211 11.0273C63.8125 11.0273 64.4189 11.1621 64.9404 11.4316C65.4619 11.7012 65.9014 12.0732 66.2588 12.5479C66.6162 13.0225 66.8857 13.5732 67.0674 14.2002C67.249 14.8271 67.3398 15.501 67.3398 16.2217V16.9688C67.3398 17.7246 67.2725 18.4541 67.1377 19.1572C67.0029 19.8545 66.7832 20.502 66.4785 21.0996C66.1797 21.6914 65.7842 22.2129 65.292 22.6641C64.8057 23.1094 64.208 23.458 63.499 23.71C62.7959 23.9561 61.9697 24.0791 61.0205 24.0791H60.8271V22.3301ZM71.0576 22.3301H71.2334C72.042 22.3301 72.7158 22.2246 73.2549 22.0137C73.7998 21.7969 74.2334 21.498 74.5557 21.1172C74.8779 20.7363 75.1094 20.2881 75.25 19.7725C75.3906 19.2568 75.4609 18.6973 75.4609 18.0938V15.8877C75.4609 15.3662 75.4053 14.9092 75.2939 14.5166C75.1885 14.1182 75.0361 13.7871 74.8369 13.5234C74.6436 13.2539 74.418 13.0518 74.1602 12.917C73.9082 12.7822 73.6357 12.7148 73.3428 12.7148C73.0205 12.7148 72.7305 12.7881 72.4727 12.9346C72.2207 13.0752 72.0068 13.2715 71.8311 13.5234C71.6611 13.7695 71.5293 14.0596 71.4355 14.3936C71.3477 14.7217 71.3037 15.0732 71.3037 15.4482C71.3037 15.7998 71.3447 16.1396 71.4268 16.4678C71.5146 16.79 71.6436 17.0771 71.8135 17.3291C71.9834 17.5811 72.1973 17.7803 72.4551 17.9268C72.7129 18.0732 73.0146 18.1465 73.3604 18.1465C73.6885 18.1465 73.9902 18.085 74.2656 17.9619C74.541 17.833 74.7812 17.6602 74.9863 17.4434C75.1914 17.2266 75.3525 16.9834 75.4697 16.7139C75.5869 16.4443 75.6514 16.1689 75.6631 15.8877L76.4717 16.1338C76.4717 16.5791 76.3779 17.0186 76.1904 17.4521C76.0088 17.8799 75.7539 18.2725 75.4258 18.6299C75.1035 18.9814 74.7256 19.2627 74.292 19.4736C73.8643 19.6846 73.3984 19.79 72.8945 19.79C72.2852 19.79 71.7461 19.6758 71.2773 19.4473C70.8145 19.2129 70.4277 18.8965 70.1172 18.498C69.8125 18.0996 69.584 17.6426 69.4316 17.127C69.2793 16.6113 69.2031 16.0693 69.2031 15.501C69.2031 14.8857 69.2969 14.3086 69.4844 13.7695C69.6719 13.2305 69.9443 12.7559 70.3018 12.3457C70.6592 11.9297 71.0928 11.6074 71.6025 11.3789C72.1182 11.1445 72.7012 11.0273 73.3516 11.0273C74.043 11.0273 74.6494 11.1621 75.1709 11.4316C75.6924 11.7012 76.1318 12.0732 76.4893 12.5479C76.8467 13.0225 77.1162 13.5732 77.2979 14.2002C77.4795 14.8271 77.5703 15.501 77.5703 16.2217V16.9688C77.5703 17.7246 77.5029 18.4541 77.3682 19.1572C77.2334 19.8545 77.0137 20.502 76.709 21.0996C76.4102 21.6914 76.0146 22.2129 75.5225 22.6641C75.0361 23.1094 74.4385 23.458 73.7295 23.71C73.0264 23.9561 72.2002 24.0791 71.251 24.0791H71.0576V22.3301ZM87.9502 20.5107C87.9502 21.3076 87.7656 21.9785 87.3965 22.5234C87.0273 23.0684 86.5234 23.4814 85.8848 23.7627C85.252 24.0381 84.5371 24.1758 83.7402 24.1758C82.9434 24.1758 82.2256 24.0381 81.5869 23.7627C80.9482 23.4814 80.4443 23.0684 80.0752 22.5234C79.7061 21.9785 79.5215 21.3076 79.5215 20.5107C79.5215 19.9834 79.624 19.5059 79.8291 19.0781C80.0342 18.6445 80.3242 18.2725 80.6992 17.9619C81.0801 17.6455 81.5254 17.4023 82.0352 17.2324C82.5508 17.0625 83.1133 16.9775 83.7227 16.9775C84.5312 16.9775 85.2549 17.127 85.8936 17.4258C86.5322 17.7246 87.0332 18.1377 87.3965 18.665C87.7656 19.1924 87.9502 19.8076 87.9502 20.5107ZM85.8232 20.4053C85.8232 19.9775 85.7354 19.6025 85.5596 19.2803C85.3838 18.958 85.1377 18.709 84.8213 18.5332C84.5049 18.3574 84.1387 18.2695 83.7227 18.2695C83.3008 18.2695 82.9346 18.3574 82.624 18.5332C82.3135 18.709 82.0703 18.958 81.8945 19.2803C81.7246 19.6025 81.6396 19.9775 81.6396 20.4053C81.6396 20.8389 81.7246 21.2139 81.8945 21.5303C82.0645 21.8408 82.3076 22.0781 82.624 22.2422C82.9404 22.4062 83.3125 22.4883 83.7402 22.4883C84.168 22.4883 84.5371 22.4062 84.8477 22.2422C85.1582 22.0781 85.3984 21.8408 85.5684 21.5303C85.7383 21.2139 85.8232 20.8389 85.8232 20.4053ZM87.6602 14.5693C87.6602 15.208 87.4902 15.7764 87.1504 16.2744C86.8164 16.7725 86.3535 17.165 85.7617 17.4521C85.1699 17.7334 84.4961 17.874 83.7402 17.874C82.9785 17.874 82.2988 17.7334 81.7012 17.4521C81.1094 17.165 80.6436 16.7725 80.3037 16.2744C79.9697 15.7764 79.8027 15.208 79.8027 14.5693C79.8027 13.8076 79.9697 13.166 80.3037 12.6445C80.6436 12.1172 81.1094 11.7158 81.7012 11.4404C82.293 11.165 82.9697 11.0273 83.7314 11.0273C84.4932 11.0273 85.1699 11.165 85.7617 11.4404C86.3535 11.7158 86.8164 12.1172 87.1504 12.6445C87.4902 13.166 87.6602 13.8076 87.6602 14.5693ZM85.542 14.6396C85.542 14.2588 85.4658 13.9248 85.3135 13.6377C85.167 13.3447 84.959 13.1162 84.6895 12.9521C84.4199 12.7881 84.1006 12.7061 83.7314 12.7061C83.3623 12.7061 83.043 12.7852 82.7734 12.9434C82.5039 13.1016 82.2959 13.3242 82.1494 13.6113C82.0029 13.8984 81.9297 14.2412 81.9297 14.6396C81.9297 15.0322 82.0029 15.375 82.1494 15.668C82.2959 15.9551 82.5039 16.1807 82.7734 16.3447C83.0488 16.5088 83.3711 16.5908 83.7402 16.5908C84.1094 16.5908 84.4287 16.5088 84.6982 16.3447C84.9678 16.1807 85.1758 15.9551 85.3223 15.668C85.4688 15.375 85.542 15.0322 85.542 14.6396Z" fill="black"/>
<defs>
<clipPath id="clip0_2_9">
<rect width="34.2857" height="35" fill="white" transform="translate(0.8573 0.5)"/>
</clipPath>
</defs>
</svg>
