<svg width="90" height="36" viewBox="0 0 90 36" fill="none" xmlns="http://www.w3.org/2000/svg">
<g clip-path="url(#clip0_1_10)">
<path d="M0.8573 9.25V13.1389H35.143V9.25C35.143 8.2186 34.7417 7.22945 34.0272 6.50014C33.3128 5.77083 32.3438 5.36111 31.3335 5.36111H4.66682C3.65647 5.36111 2.68751 5.77083 1.97308 6.50014C1.25866 7.22945 0.8573 8.2186 0.8573 9.25H0.8573Z" fill="#0099B5"/>
<path d="M35.143 26.75V22.8611H0.8573V26.75C0.8573 27.7814 1.25866 28.7705 1.97308 29.4999C2.68751 30.2292 3.65647 30.6389 4.66682 30.6389H31.3335C32.3438 30.6389 33.3128 30.2292 34.0272 29.4999C34.7417 28.7705 35.143 27.7814 35.143 26.75Z" fill="#1EB53A"/>
<path d="M0.8573 13.1389H35.143V14.5972H0.8573V13.1389ZM0.8573 21.4028H35.143V22.8611H0.8573V21.4028Z" fill="#CE1126"/>
<path d="M0.8573 18V21.4028H35.143V14.5972H0.8573V18Z" fill="#EEEEEE"/>
<path d="M4.85733 9.40555C4.85741 8.68877 5.10613 7.99518 5.5594 7.44776C6.01267 6.90034 6.64119 6.53446 7.33352 6.41499C6.90732 6.34114 6.47046 6.36311 6.05344 6.47937C5.63641 6.59563 5.24926 6.80338 4.91899 7.08812C4.58872 7.37287 4.32329 7.72774 4.14122 8.128C3.95914 8.52825 3.86482 8.96424 3.86482 9.40555C3.86482 9.84685 3.95914 10.2828 4.14122 10.6831C4.32329 11.0834 4.58872 11.4382 4.91899 11.723C5.24926 12.0077 5.63641 12.2155 6.05344 12.3317C6.47046 12.448 6.90732 12.47 7.33352 12.3961C6.64119 12.2766 6.01267 11.9108 5.5594 11.3633C5.10613 10.8159 4.85741 10.1223 4.85733 9.40555V9.40555ZM9.31733 11.6446L9.18399 11.2255L9.05066 11.6446H8.61828L8.9678 11.9042L8.83447 12.3232L9.18399 12.0636L9.53257 12.3232L9.39923 11.9042L9.74876 11.6446H9.31733ZM11.8907 11.6446L11.7573 11.2255L11.624 11.6446H11.1926L11.5421 11.9042L11.4088 12.3232L11.7573 12.0636L12.1069 12.3232L11.9735 11.9042L12.323 11.6446H11.8907ZM11.7573 8.79888L11.624 9.21791H11.1926L11.5421 9.47749L11.4088 9.89652L11.7573 9.63694L12.1069 9.89652L11.9735 9.47749L12.323 9.21791H11.8907L11.7573 8.79888ZM14.4649 11.6446L14.3316 11.2255L14.1983 11.6446H13.7669L14.1154 11.9042L13.9821 12.3232L14.3316 12.0636L14.6811 12.3232L14.5478 11.9042L14.8964 11.6446H14.4649ZM14.3316 8.79888L14.1983 9.21791H13.7669L14.1154 9.47749L13.9821 9.89652L14.3316 9.63694L14.6811 9.89652L14.5478 9.47749L14.8964 9.21791H14.4649L14.3316 8.79888ZM14.3316 6.37221L14.1983 6.79124H13.7669L14.1154 7.05083L13.9821 7.46985L14.3316 7.21027L14.6811 7.46985L14.5478 7.05083L14.8964 6.79124H14.4649L14.3316 6.37221ZM17.0392 11.6446L16.9059 11.2255L16.7726 11.6446H16.3402L16.6897 11.9042L16.5564 12.3232L16.9059 12.0636L17.2545 12.3232L17.1211 11.9042L17.4707 11.6446H17.0392ZM16.9059 8.79888L16.7726 9.21791H16.3402L16.6897 9.47749L16.5564 9.89652L16.9059 9.63694L17.2545 9.89652L17.1211 9.47749L17.4707 9.21791H17.0392L16.9059 8.79888ZM16.9059 6.37221L16.7726 6.79124H16.3402L16.6897 7.05083L16.5564 7.46985L16.9059 7.21027L17.2545 7.46985L17.1211 7.05083L17.4707 6.79124H17.0392L16.9059 6.37221ZM19.6126 11.6446L19.4792 11.2255L19.3459 11.6446H18.9145L19.264 11.9042L19.1307 12.3232L19.4792 12.0636L19.8288 12.3232L19.6954 11.9042L20.0449 11.6446H19.6126ZM19.4792 8.79888L19.3459 9.21791H18.9145L19.264 9.47749L19.1307 9.89652L19.4792 9.63694L19.8288 9.89652L19.6954 9.47749L20.0449 9.21791H19.6126L19.4792 8.79888ZM19.4792 6.37221L19.3459 6.79124H18.9145L19.264 7.05083L19.1307 7.46985L19.4792 7.21027L19.8288 7.46985L19.6954 7.05083L20.0449 6.79124H19.6126L19.4792 6.37221Z" fill="white"/>
</g>
<path d="M61.7266 16.7656V18.4609H53.9297V16.7656H61.7266ZM58.7422 13.5781V21.8594H56.9219V13.5781H58.7422ZM64.6797 21.5156H64.8359C65.5547 21.5156 66.1536 21.4219 66.6328 21.2344C67.1172 21.0417 67.5026 20.776 67.7891 20.4375C68.0755 20.099 68.2812 19.7005 68.4062 19.2422C68.5312 18.7839 68.5938 18.2865 68.5938 17.75V15.7891C68.5938 15.3255 68.5443 14.9193 68.4453 14.5703C68.3516 14.2161 68.2161 13.9219 68.0391 13.6875C67.8672 13.4479 67.6667 13.2682 67.4375 13.1484C67.2135 13.0286 66.9714 12.9688 66.7109 12.9688C66.4245 12.9688 66.1667 13.0339 65.9375 13.1641C65.7135 13.2891 65.5234 13.4635 65.3672 13.6875C65.2161 13.9062 65.099 14.1641 65.0156 14.4609C64.9375 14.7526 64.8984 15.0651 64.8984 15.3984C64.8984 15.7109 64.9349 16.013 65.0078 16.3047C65.0859 16.5911 65.2005 16.8464 65.3516 17.0703C65.5026 17.2943 65.6927 17.4714 65.9219 17.6016C66.151 17.7318 66.4193 17.7969 66.7266 17.7969C67.0182 17.7969 67.2865 17.7422 67.5312 17.6328C67.776 17.5182 67.9896 17.3646 68.1719 17.1719C68.3542 16.9792 68.4974 16.763 68.6016 16.5234C68.7057 16.2839 68.763 16.0391 68.7734 15.7891L69.4922 16.0078C69.4922 16.4036 69.4089 16.7943 69.2422 17.1797C69.0807 17.5599 68.8542 17.9089 68.5625 18.2266C68.276 18.5391 67.9401 18.7891 67.5547 18.9766C67.1745 19.1641 66.7604 19.2578 66.3125 19.2578C65.7708 19.2578 65.2917 19.1562 64.875 18.9531C64.4635 18.7448 64.1198 18.4635 63.8438 18.1094C63.5729 17.7552 63.3698 17.349 63.2344 16.8906C63.099 16.4323 63.0312 15.9505 63.0312 15.4453C63.0312 14.8984 63.1146 14.3854 63.2812 13.9062C63.4479 13.4271 63.6901 13.0052 64.0078 12.6406C64.3255 12.2708 64.7109 11.9844 65.1641 11.7812C65.6224 11.5729 66.1406 11.4688 66.7188 11.4688C67.3333 11.4688 67.8724 11.5885 68.3359 11.8281C68.7995 12.0677 69.1901 12.3984 69.5078 12.8203C69.8255 13.2422 70.0651 13.7318 70.2266 14.2891C70.388 14.8464 70.4688 15.4453 70.4688 16.0859V16.75C70.4688 17.4219 70.4089 18.0703 70.2891 18.6953C70.1693 19.3151 69.974 19.8906 69.7031 20.4219C69.4375 20.9479 69.0859 21.4115 68.6484 21.8125C68.2161 22.2083 67.6849 22.5182 67.0547 22.7422C66.4297 22.9609 65.6953 23.0703 64.8516 23.0703H64.6797V21.5156ZM73.7734 21.5156H73.9297C74.6484 21.5156 75.2474 21.4219 75.7266 21.2344C76.2109 21.0417 76.5964 20.776 76.8828 20.4375C77.1693 20.099 77.375 19.7005 77.5 19.2422C77.625 18.7839 77.6875 18.2865 77.6875 17.75V15.7891C77.6875 15.3255 77.638 14.9193 77.5391 14.5703C77.4453 14.2161 77.3099 13.9219 77.1328 13.6875C76.9609 13.4479 76.7604 13.2682 76.5312 13.1484C76.3073 13.0286 76.0651 12.9688 75.8047 12.9688C75.5182 12.9688 75.2604 13.0339 75.0312 13.1641C74.8073 13.2891 74.6172 13.4635 74.4609 13.6875C74.3099 13.9062 74.1927 14.1641 74.1094 14.4609C74.0312 14.7526 73.9922 15.0651 73.9922 15.3984C73.9922 15.7109 74.0286 16.013 74.1016 16.3047C74.1797 16.5911 74.2943 16.8464 74.4453 17.0703C74.5964 17.2943 74.7865 17.4714 75.0156 17.6016C75.2448 17.7318 75.513 17.7969 75.8203 17.7969C76.112 17.7969 76.3802 17.7422 76.625 17.6328C76.8698 17.5182 77.0833 17.3646 77.2656 17.1719C77.4479 16.9792 77.5911 16.763 77.6953 16.5234C77.7995 16.2839 77.8568 16.0391 77.8672 15.7891L78.5859 16.0078C78.5859 16.4036 78.5026 16.7943 78.3359 17.1797C78.1745 17.5599 77.9479 17.9089 77.6562 18.2266C77.3698 18.5391 77.0339 18.7891 76.6484 18.9766C76.2682 19.1641 75.8542 19.2578 75.4062 19.2578C74.8646 19.2578 74.3854 19.1562 73.9688 18.9531C73.5573 18.7448 73.2135 18.4635 72.9375 18.1094C72.6667 17.7552 72.4635 17.349 72.3281 16.8906C72.1927 16.4323 72.125 15.9505 72.125 15.4453C72.125 14.8984 72.2083 14.3854 72.375 13.9062C72.5417 13.4271 72.7839 13.0052 73.1016 12.6406C73.4193 12.2708 73.8047 11.9844 74.2578 11.7812C74.7161 11.5729 75.2344 11.4688 75.8125 11.4688C76.4271 11.4688 76.9661 11.5885 77.4297 11.8281C77.8932 12.0677 78.2839 12.3984 78.6016 12.8203C78.9193 13.2422 79.1589 13.7318 79.3203 14.2891C79.4818 14.8464 79.5625 15.4453 79.5625 16.0859V16.75C79.5625 17.4219 79.5026 18.0703 79.3828 18.6953C79.263 19.3151 79.0677 19.8906 78.7969 20.4219C78.5312 20.9479 78.1797 21.4115 77.7422 21.8125C77.3099 22.2083 76.7786 22.5182 76.1484 22.7422C75.5234 22.9609 74.7891 23.0703 73.9453 23.0703H73.7734V21.5156ZM88.7891 19.8984C88.7891 20.6068 88.625 21.2031 88.2969 21.6875C87.9688 22.1719 87.5208 22.5391 86.9531 22.7891C86.3906 23.0339 85.7552 23.1562 85.0469 23.1562C84.3385 23.1562 83.7005 23.0339 83.1328 22.7891C82.5651 22.5391 82.1172 22.1719 81.7891 21.6875C81.4609 21.2031 81.2969 20.6068 81.2969 19.8984C81.2969 19.4297 81.388 19.0052 81.5703 18.625C81.7526 18.2396 82.0104 17.9089 82.3438 17.6328C82.6823 17.3516 83.0781 17.1354 83.5312 16.9844C83.9896 16.8333 84.4896 16.7578 85.0312 16.7578C85.75 16.7578 86.3932 16.8906 86.9609 17.1562C87.5286 17.4219 87.974 17.7891 88.2969 18.2578C88.625 18.7266 88.7891 19.2734 88.7891 19.8984ZM86.8984 19.8047C86.8984 19.4245 86.8203 19.0911 86.6641 18.8047C86.5078 18.5182 86.2891 18.2969 86.0078 18.1406C85.7266 17.9844 85.401 17.9062 85.0312 17.9062C84.6562 17.9062 84.3307 17.9844 84.0547 18.1406C83.7786 18.2969 83.5625 18.5182 83.4062 18.8047C83.2552 19.0911 83.1797 19.4245 83.1797 19.8047C83.1797 20.1901 83.2552 20.5234 83.4062 20.8047C83.5573 21.0807 83.7734 21.2917 84.0547 21.4375C84.3359 21.5833 84.6667 21.6562 85.0469 21.6562C85.4271 21.6562 85.7552 21.5833 86.0312 21.4375C86.3073 21.2917 86.5208 21.0807 86.6719 20.8047C86.8229 20.5234 86.8984 20.1901 86.8984 19.8047ZM88.5312 14.6172C88.5312 15.1849 88.3802 15.6901 88.0781 16.1328C87.7812 16.5755 87.3698 16.9245 86.8438 17.1797C86.3177 17.4297 85.7188 17.5547 85.0469 17.5547C84.3698 17.5547 83.7656 17.4297 83.2344 17.1797C82.7083 16.9245 82.2943 16.5755 81.9922 16.1328C81.6953 15.6901 81.5469 15.1849 81.5469 14.6172C81.5469 13.9401 81.6953 13.3698 81.9922 12.9062C82.2943 12.4375 82.7083 12.0807 83.2344 11.8359C83.7604 11.5911 84.362 11.4688 85.0391 11.4688C85.7161 11.4688 86.3177 11.5911 86.8438 11.8359C87.3698 12.0807 87.7812 12.4375 88.0781 12.9062C88.3802 13.3698 88.5312 13.9401 88.5312 14.6172ZM86.6484 14.6797C86.6484 14.3411 86.5807 14.0443 86.4453 13.7891C86.3151 13.5286 86.1302 13.3255 85.8906 13.1797C85.651 13.0339 85.3672 12.9609 85.0391 12.9609C84.7109 12.9609 84.4271 13.0312 84.1875 13.1719C83.9479 13.3125 83.763 13.5104 83.6328 13.7656C83.5026 14.0208 83.4375 14.3255 83.4375 14.6797C83.4375 15.0286 83.5026 15.3333 83.6328 15.5938C83.763 15.849 83.9479 16.0495 84.1875 16.1953C84.4323 16.3411 84.7188 16.4141 85.0469 16.4141C85.375 16.4141 85.6589 16.3411 85.8984 16.1953C86.138 16.0495 86.3229 15.849 86.4531 15.5938C86.5833 15.3333 86.6484 15.0286 86.6484 14.6797Z" fill="black"/>
<defs>
<clipPath id="clip0_1_10">
<rect width="34.2857" height="35" fill="white" transform="translate(0.8573 0.5)"/>
</clipPath>
</defs>
</svg>
