<svg width="94" height="36" viewBox="0 0 94 36" fill="none" xmlns="http://www.w3.org/2000/svg">
<g clip-path="url(#clip0_1_10)">
<path d="M0.8573 9.25V13.1389H35.143V9.25C35.143 8.2186 34.7417 7.22945 34.0272 6.50014C33.3128 5.77083 32.3438 5.36111 31.3335 5.36111H4.66682C3.65647 5.36111 2.68751 5.77083 1.97308 6.50014C1.25866 7.22945 0.8573 8.2186 0.8573 9.25H0.8573Z" fill="#0099B5"/>
<path d="M35.143 26.75V22.8611H0.8573V26.75C0.8573 27.7814 1.25866 28.7705 1.97308 29.4999C2.68751 30.2292 3.65647 30.6389 4.66682 30.6389H31.3335C32.3438 30.6389 33.3128 30.2292 34.0272 29.4999C34.7417 28.7705 35.143 27.7814 35.143 26.75Z" fill="#1EB53A"/>
<path d="M0.8573 13.1389H35.143V14.5972H0.8573V13.1389ZM0.8573 21.4028H35.143V22.8611H0.8573V21.4028Z" fill="#CE1126"/>
<path d="M0.8573 18V21.4028H35.143V14.5972H0.8573V18Z" fill="#EEEEEE"/>
<path d="M4.85733 9.40555C4.85741 8.68877 5.10613 7.99518 5.5594 7.44776C6.01267 6.90034 6.64119 6.53446 7.33352 6.41499C6.90732 6.34114 6.47046 6.36311 6.05344 6.47937C5.63641 6.59563 5.24926 6.80338 4.91899 7.08812C4.58872 7.37287 4.32329 7.72774 4.14122 8.128C3.95914 8.52825 3.86482 8.96424 3.86482 9.40555C3.86482 9.84685 3.95914 10.2828 4.14122 10.6831C4.32329 11.0834 4.58872 11.4382 4.91899 11.723C5.24926 12.0077 5.63641 12.2155 6.05344 12.3317C6.47046 12.448 6.90732 12.47 7.33352 12.3961C6.64119 12.2766 6.01267 11.9108 5.5594 11.3633C5.10613 10.8159 4.85741 10.1223 4.85733 9.40555ZM9.31733 11.6446L9.18399 11.2255L9.05066 11.6446H8.61828L8.9678 11.9042L8.83447 12.3232L9.18399 12.0636L9.53257 12.3232L9.39923 11.9042L9.74876 11.6446H9.31733ZM11.8907 11.6446L11.7573 11.2255L11.624 11.6446H11.1926L11.5421 11.9042L11.4088 12.3232L11.7573 12.0636L12.1069 12.3232L11.9735 11.9042L12.323 11.6446H11.8907ZM11.7573 8.79888L11.624 9.21791H11.1926L11.5421 9.47749L11.4088 9.89652L11.7573 9.63694L12.1069 9.89652L11.9735 9.47749L12.323 9.21791H11.8907L11.7573 8.79888ZM14.4649 11.6446L14.3316 11.2255L14.1983 11.6446H13.7669L14.1154 11.9042L13.9821 12.3232L14.3316 12.0636L14.6811 12.3232L14.5478 11.9042L14.8964 11.6446H14.4649ZM14.3316 8.79888L14.1983 9.21791H13.7669L14.1154 9.47749L13.9821 9.89652L14.3316 9.63694L14.6811 9.89652L14.5478 9.47749L14.8964 9.21791H14.4649L14.3316 8.79888ZM14.3316 6.37221L14.1983 6.79124H13.7669L14.1154 7.05083L13.9821 7.46985L14.3316 7.21027L14.6811 7.46985L14.5478 7.05083L14.8964 6.79124H14.4649L14.3316 6.37221ZM17.0392 11.6446L16.9059 11.2255L16.7726 11.6446H16.3402L16.6897 11.9042L16.5564 12.3232L16.9059 12.0636L17.2545 12.3232L17.1211 11.9042L17.4707 11.6446H17.0392ZM16.9059 8.79888L16.7726 9.21791H16.3402L16.6897 9.47749L16.5564 9.89652L16.9059 9.63694L17.2545 9.89652L17.1211 9.47749L17.4707 9.21791H17.0392L16.9059 8.79888ZM16.9059 6.37221L16.7726 6.79124H16.3402L16.6897 7.05083L16.5564 7.46985L16.9059 7.21027L17.2545 7.46985L17.1211 7.05083L17.4707 6.79124H17.0392L16.9059 6.37221ZM19.6126 11.6446L19.4792 11.2255L19.3459 11.6446H18.9145L19.264 11.9042L19.1307 12.3232L19.4792 12.0636L19.8288 12.3232L19.6954 11.9042L20.0449 11.6446H19.6126ZM19.4792 8.79888L19.3459 9.21791H18.9145L19.264 9.47749L19.1307 9.89652L19.4792 9.63694L19.8288 9.89652L19.6954 9.47749L20.0449 9.21791H19.6126L19.4792 8.79888ZM19.4792 6.37221L19.3459 6.79124H18.9145L19.264 7.05083L19.1307 7.46985L19.4792 7.21027L19.8288 7.46985L19.6954 7.05083L20.0449 6.79124H19.6126L19.4792 6.37221Z" fill="white"/>
</g>
<path d="M62.5049 16.9863V18.8936H53.7334V16.9863H62.5049ZM59.1475 13.4004V22.7168H57.0996V13.4004H59.1475ZM65.8271 22.3301H66.0029C66.8115 22.3301 67.4854 22.2246 68.0244 22.0137C68.5693 21.7969 69.0029 21.498 69.3252 21.1172C69.6475 20.7363 69.8789 20.2881 70.0195 19.7725C70.1602 19.2568 70.2305 18.6973 70.2305 18.0938V15.8877C70.2305 15.3662 70.1748 14.9092 70.0635 14.5166C69.958 14.1182 69.8057 13.7871 69.6064 13.5234C69.4131 13.2539 69.1875 13.0518 68.9297 12.917C68.6777 12.7822 68.4053 12.7148 68.1123 12.7148C67.79 12.7148 67.5 12.7881 67.2422 12.9346C66.9902 13.0752 66.7764 13.2715 66.6006 13.5234C66.4307 13.7695 66.2988 14.0596 66.2051 14.3936C66.1172 14.7217 66.0732 15.0732 66.0732 15.4482C66.0732 15.7998 66.1143 16.1396 66.1963 16.4678C66.2842 16.79 66.4131 17.0771 66.583 17.3291C66.7529 17.5811 66.9668 17.7803 67.2246 17.9268C67.4824 18.0732 67.7842 18.1465 68.1299 18.1465C68.458 18.1465 68.7598 18.085 69.0352 17.9619C69.3105 17.833 69.5508 17.6602 69.7559 17.4434C69.9609 17.2266 70.1221 16.9834 70.2393 16.7139C70.3564 16.4443 70.4209 16.1689 70.4326 15.8877L71.2412 16.1338C71.2412 16.5791 71.1475 17.0186 70.96 17.4521C70.7783 17.8799 70.5234 18.2725 70.1953 18.6299C69.873 18.9814 69.4951 19.2627 69.0615 19.4736C68.6338 19.6846 68.168 19.79 67.6641 19.79C67.0547 19.79 66.5156 19.6758 66.0469 19.4473C65.584 19.2129 65.1973 18.8965 64.8867 18.498C64.582 18.0996 64.3535 17.6426 64.2012 17.127C64.0488 16.6113 63.9727 16.0693 63.9727 15.501C63.9727 14.8857 64.0664 14.3086 64.2539 13.7695C64.4414 13.2305 64.7139 12.7559 65.0713 12.3457C65.4287 11.9297 65.8623 11.6074 66.3721 11.3789C66.8877 11.1445 67.4707 11.0273 68.1211 11.0273C68.8125 11.0273 69.4189 11.1621 69.9404 11.4316C70.4619 11.7012 70.9014 12.0732 71.2588 12.5479C71.6162 13.0225 71.8857 13.5732 72.0674 14.2002C72.249 14.8271 72.3398 15.501 72.3398 16.2217V16.9688C72.3398 17.7246 72.2725 18.4541 72.1377 19.1572C72.0029 19.8545 71.7832 20.502 71.4785 21.0996C71.1797 21.6914 70.7842 22.2129 70.292 22.6641C69.8057 23.1094 69.208 23.458 68.499 23.71C67.7959 23.9561 66.9697 24.0791 66.0205 24.0791H65.8271V22.3301ZM76.0576 22.3301H76.2334C77.042 22.3301 77.7158 22.2246 78.2549 22.0137C78.7998 21.7969 79.2334 21.498 79.5557 21.1172C79.8779 20.7363 80.1094 20.2881 80.25 19.7725C80.3906 19.2568 80.4609 18.6973 80.4609 18.0938V15.8877C80.4609 15.3662 80.4053 14.9092 80.2939 14.5166C80.1885 14.1182 80.0361 13.7871 79.8369 13.5234C79.6436 13.2539 79.418 13.0518 79.1602 12.917C78.9082 12.7822 78.6357 12.7148 78.3428 12.7148C78.0205 12.7148 77.7305 12.7881 77.4727 12.9346C77.2207 13.0752 77.0068 13.2715 76.8311 13.5234C76.6611 13.7695 76.5293 14.0596 76.4355 14.3936C76.3477 14.7217 76.3037 15.0732 76.3037 15.4482C76.3037 15.7998 76.3447 16.1396 76.4268 16.4678C76.5146 16.79 76.6436 17.0771 76.8135 17.3291C76.9834 17.5811 77.1973 17.7803 77.4551 17.9268C77.7129 18.0732 78.0146 18.1465 78.3604 18.1465C78.6885 18.1465 78.9902 18.085 79.2656 17.9619C79.541 17.833 79.7812 17.6602 79.9863 17.4434C80.1914 17.2266 80.3525 16.9834 80.4697 16.7139C80.5869 16.4443 80.6514 16.1689 80.6631 15.8877L81.4717 16.1338C81.4717 16.5791 81.3779 17.0186 81.1904 17.4521C81.0088 17.8799 80.7539 18.2725 80.4258 18.6299C80.1035 18.9814 79.7256 19.2627 79.292 19.4736C78.8643 19.6846 78.3984 19.79 77.8945 19.79C77.2852 19.79 76.7461 19.6758 76.2773 19.4473C75.8145 19.2129 75.4277 18.8965 75.1172 18.498C74.8125 18.0996 74.584 17.6426 74.4316 17.127C74.2793 16.6113 74.2031 16.0693 74.2031 15.501C74.2031 14.8857 74.2969 14.3086 74.4844 13.7695C74.6719 13.2305 74.9443 12.7559 75.3018 12.3457C75.6592 11.9297 76.0928 11.6074 76.6025 11.3789C77.1182 11.1445 77.7012 11.0273 78.3516 11.0273C79.043 11.0273 79.6494 11.1621 80.1709 11.4316C80.6924 11.7012 81.1318 12.0732 81.4893 12.5479C81.8467 13.0225 82.1162 13.5732 82.2979 14.2002C82.4795 14.8271 82.5703 15.501 82.5703 16.2217V16.9688C82.5703 17.7246 82.5029 18.4541 82.3682 19.1572C82.2334 19.8545 82.0137 20.502 81.709 21.0996C81.4102 21.6914 81.0146 22.2129 80.5225 22.6641C80.0361 23.1094 79.4385 23.458 78.7295 23.71C78.0264 23.9561 77.2002 24.0791 76.251 24.0791H76.0576V22.3301ZM92.9502 20.5107C92.9502 21.3076 92.7656 21.9785 92.3965 22.5234C92.0273 23.0684 91.5234 23.4814 90.8848 23.7627C90.252 24.0381 89.5371 24.1758 88.7402 24.1758C87.9434 24.1758 87.2256 24.0381 86.5869 23.7627C85.9482 23.4814 85.4443 23.0684 85.0752 22.5234C84.7061 21.9785 84.5215 21.3076 84.5215 20.5107C84.5215 19.9834 84.624 19.5059 84.8291 19.0781C85.0342 18.6445 85.3242 18.2725 85.6992 17.9619C86.0801 17.6455 86.5254 17.4023 87.0352 17.2324C87.5508 17.0625 88.1133 16.9775 88.7227 16.9775C89.5312 16.9775 90.2549 17.127 90.8936 17.4258C91.5322 17.7246 92.0332 18.1377 92.3965 18.665C92.7656 19.1924 92.9502 19.8076 92.9502 20.5107ZM90.8232 20.4053C90.8232 19.9775 90.7354 19.6025 90.5596 19.2803C90.3838 18.958 90.1377 18.709 89.8213 18.5332C89.5049 18.3574 89.1387 18.2695 88.7227 18.2695C88.3008 18.2695 87.9346 18.3574 87.624 18.5332C87.3135 18.709 87.0703 18.958 86.8945 19.2803C86.7246 19.6025 86.6396 19.9775 86.6396 20.4053C86.6396 20.8389 86.7246 21.2139 86.8945 21.5303C87.0645 21.8408 87.3076 22.0781 87.624 22.2422C87.9404 22.4062 88.3125 22.4883 88.7402 22.4883C89.168 22.4883 89.5371 22.4062 89.8477 22.2422C90.1582 22.0781 90.3984 21.8408 90.5684 21.5303C90.7383 21.2139 90.8232 20.8389 90.8232 20.4053ZM92.6602 14.5693C92.6602 15.208 92.4902 15.7764 92.1504 16.2744C91.8164 16.7725 91.3535 17.165 90.7617 17.4521C90.1699 17.7334 89.4961 17.874 88.7402 17.874C87.9785 17.874 87.2988 17.7334 86.7012 17.4521C86.1094 17.165 85.6436 16.7725 85.3037 16.2744C84.9697 15.7764 84.8027 15.208 84.8027 14.5693C84.8027 13.8076 84.9697 13.166 85.3037 12.6445C85.6436 12.1172 86.1094 11.7158 86.7012 11.4404C87.293 11.165 87.9697 11.0273 88.7314 11.0273C89.4932 11.0273 90.1699 11.165 90.7617 11.4404C91.3535 11.7158 91.8164 12.1172 92.1504 12.6445C92.4902 13.166 92.6602 13.8076 92.6602 14.5693ZM90.542 14.6396C90.542 14.2588 90.4658 13.9248 90.3135 13.6377C90.167 13.3447 89.959 13.1162 89.6895 12.9521C89.4199 12.7881 89.1006 12.7061 88.7314 12.7061C88.3623 12.7061 88.043 12.7852 87.7734 12.9434C87.5039 13.1016 87.2959 13.3242 87.1494 13.6113C87.0029 13.8984 86.9297 14.2412 86.9297 14.6396C86.9297 15.0322 87.0029 15.375 87.1494 15.668C87.2959 15.9551 87.5039 16.1807 87.7734 16.3447C88.0488 16.5088 88.3711 16.5908 88.7402 16.5908C89.1094 16.5908 89.4287 16.5088 89.6982 16.3447C89.9678 16.1807 90.1758 15.9551 90.3223 15.668C90.4688 15.375 90.542 15.0322 90.542 14.6396Z" fill="black"/>
<defs>
<clipPath id="clip0_1_10">
<rect width="34.2857" height="35" fill="white" transform="translate(0.8573 0.5)"/>
</clipPath>
</defs>
</svg>
