<svg width="32" height="34" viewBox="0 0 32 34" fill="none" xmlns="http://www.w3.org/2000/svg">
<path d="M27.5372 1.06277C27.3682 0.893769 27.139 0.798828 26.9 0.798828C26.661 0.798828 26.4318 0.893769 26.2628 1.06277C26.0938 1.23176 25.9989 1.46097 25.9989 1.69997C25.9989 1.93896 26.0938 2.16817 26.2628 2.33717C28.3076 4.38017 29.375 7.50317 29.375 10.7C29.375 13.8968 28.3076 17.0198 26.2628 19.0628C26.0938 19.2318 25.9989 19.461 25.9989 19.7C25.9989 19.939 26.0938 20.1682 26.2628 20.3372C26.4318 20.5062 26.661 20.6011 26.9 20.6011C27.139 20.6011 27.3682 20.5062 27.5372 20.3372C29.9924 17.8802 31.175 14.2532 31.175 10.7C31.175 7.14677 29.9924 3.51977 27.5372 1.06277Z" fill="#6275DE"/>
<path d="M23.9373 4.66286C23.8536 4.57918 23.7542 4.51281 23.6449 4.46752C23.5356 4.42223 23.4184 4.39893 23.3001 4.39893C23.1817 4.39893 23.0645 4.42223 22.9552 4.46752C22.8459 4.51281 22.7465 4.57918 22.6629 4.66286C22.5792 4.74654 22.5128 4.84588 22.4675 4.95521C22.4222 5.06454 22.3989 5.18172 22.3989 5.30006C22.3989 5.4184 22.4222 5.53558 22.4675 5.64491C22.5128 5.75424 22.5792 5.85358 22.6629 5.93726C23.8059 7.08026 24.4251 8.85326 24.4251 10.7001C24.4251 12.5469 23.8059 14.3199 22.6629 15.4629C22.4939 15.6319 22.3989 15.8611 22.3989 16.1001C22.3989 16.3391 22.4939 16.5683 22.6629 16.7373C22.8319 16.9063 23.0611 17.0012 23.3001 17.0012C23.5391 17.0012 23.7683 16.9063 23.9373 16.7373C25.4943 15.1803 26.2251 12.9033 26.2251 10.7001C26.2251 8.49686 25.4943 6.21986 23.9373 4.66286Z" fill="#6275DE"/>
<path d="M6.20007 11.5999C6.20007 9.69034 6.95864 7.859 8.3089 6.50873C9.65917 5.15847 11.4905 4.3999 13.4001 4.3999C15.3096 4.3999 17.141 5.15847 18.4912 6.50873C19.8415 7.859 20.6001 9.69034 20.6001 11.5999C20.6001 13.5095 19.8415 15.3408 18.4912 16.6911C17.141 18.0413 15.3096 18.7999 13.4001 18.7999C11.4905 18.7999 9.65917 18.0413 8.3089 16.6911C6.95864 15.3408 6.20007 13.5095 6.20007 11.5999ZM13.4001 6.1999C12.6909 6.1999 11.9887 6.33958 11.3336 6.61095C10.6784 6.88233 10.0831 7.28009 9.5817 7.78153C9.08026 8.28296 8.6825 8.87825 8.41112 9.53341C8.13975 10.1886 8.00007 10.8908 8.00007 11.5999C8.00007 12.309 8.13975 13.0112 8.41112 13.6664C8.6825 14.3216 9.08026 14.9168 9.5817 15.4183C10.0831 15.9197 10.6784 16.3175 11.3336 16.5889C11.9887 16.8602 12.6909 16.9999 13.4001 16.9999C14.8322 16.9999 16.2058 16.431 17.2185 15.4183C18.2311 14.4056 18.8001 13.0321 18.8001 11.5999C18.8001 10.1677 18.2311 8.79422 17.2185 7.78153C16.2058 6.76883 14.8322 6.1999 13.4001 6.1999Z" fill="#6275DE"/>
<path d="M0.800049 24.1999C0.800049 22.1965 2.42545 20.5999 4.41625 20.5999H22.4C23.3548 20.5999 24.2705 20.9791 24.9456 21.6543C25.6208 22.3294 26 23.2451 26 24.1999C26 27.2437 24.5006 29.5387 22.157 31.0345C19.8494 32.5051 16.739 33.1999 13.4 33.1999C10.061 33.1999 6.95065 32.5051 4.64305 31.0345C2.29945 29.5405 0.800049 27.2419 0.800049 24.1999ZM4.41625 22.3999C3.40645 22.3999 2.60005 23.2045 2.60005 24.1999C2.60005 26.5561 3.71965 28.3111 5.61145 29.5153C7.53745 30.7447 10.277 31.3999 13.4 31.3999C16.523 31.3999 19.2626 30.7447 21.1886 29.5153C23.0786 28.3093 24.2001 26.5579 24.2001 24.1999C24.2001 23.7225 24.0104 23.2646 23.6728 22.9271C23.3353 22.5895 22.8774 22.3999 22.4 22.3999H4.41625Z" fill="#6275DE"/>
</svg>
