<svg width="12" height="12" viewBox="0 0 12 12" fill="none" xmlns="http://www.w3.org/2000/svg">
<path d="M0.610315 0.236047C0.68495 0.161223 0.773613 0.101859 0.871226 0.0613538C0.968839 0.0208489 1.07348 0 1.17917 0C1.28485 0 1.3895 0.0208489 1.48711 0.0613538C1.58472 0.101859 1.67338 0.161223 1.74802 0.236047L5.99995 4.48958L10.2519 0.236047C10.3266 0.161344 10.4153 0.102087 10.5129 0.061658C10.6105 0.0212292 10.7151 0.000420667 10.8207 0.000420667C10.9264 0.000420667 11.031 0.0212292 11.1286 0.061658C11.2262 0.102087 11.3149 0.161344 11.3896 0.236047C11.4643 0.31075 11.5235 0.399435 11.564 0.497039C11.6044 0.594643 11.6252 0.699254 11.6252 0.8049C11.6252 0.910545 11.6044 1.01516 11.564 1.11276C11.5235 1.21036 11.4643 1.29905 11.3896 1.37375L7.13605 5.62568L11.3896 9.87761C11.4643 9.95232 11.5235 10.041 11.564 10.1386C11.6044 10.2362 11.6252 10.3408 11.6252 10.4465C11.6252 10.5521 11.6044 10.6567 11.564 10.7543C11.5235 10.8519 11.4643 10.9406 11.3896 11.0153C11.3149 11.09 11.2262 11.1493 11.1286 11.1897C11.031 11.2301 10.9264 11.2509 10.8207 11.2509C10.7151 11.2509 10.6105 11.2301 10.5129 11.1897C10.4153 11.1493 10.3266 11.09 10.2519 11.0153L5.99995 6.76178L1.74802 11.0153C1.67332 11.09 1.58463 11.1493 1.48703 11.1897C1.38942 11.2301 1.28481 11.2509 1.17917 11.2509C1.07352 11.2509 0.96891 11.2301 0.871306 11.1897C0.773702 11.1493 0.685018 11.09 0.610315 11.0153C0.535612 10.9406 0.476354 10.8519 0.435926 10.7543C0.395497 10.6567 0.374688 10.5521 0.374688 10.4465C0.374688 10.3408 0.395497 10.2362 0.435926 10.1386C0.476354 10.041 0.535612 9.95232 0.610315 9.87761L4.86385 5.62568L0.610315 1.37375C0.535491 1.29912 0.476126 1.21045 0.435621 1.11284C0.395116 1.01523 0.374268 0.910583 0.374268 0.8049C0.374268 0.699216 0.395116 0.594571 0.435621 0.496958C0.476126 0.399345 0.535491 0.310682 0.610315 0.236047Z" fill="black"/>
</svg>
